<?xml version="1.0" encoding="utf-8"?>
<!-- Generator: Adobe Illustrator 22.1.0, SVG Export Plug-In . SVG Version: 6.00 Build 0)  -->
<svg version="1.1" xmlns="http://www.w3.org/2000/svg" xmlns:xlink="http://www.w3.org/1999/xlink" x="0px" y="0px"
	 viewBox="0 0 600 600" style="enable-background:new 0 0 600 600;" xml:space="preserve">
<style type="text/css">
	.st0{fill:#FFFFFF;}
	.st1{fill:#5A1FE2;}
	.st2{fill:#B3B0DF;}
	.st3{fill:#6A00FA;}
	.st4{fill:#4D4D4D;}
	.st5{fill:#B3B3B3;}
</style>
<g id="Background_1_">
	<rect id="Background" x="-1860" class="st0" width="600" height="600"/>
	<rect id="Background_2_" x="-1240" width="600" height="600"/>
</g>
<g id="Bubble_1_">
	<path id="Scintillation" class="st1" d="M-1351.6,300c0-40,66.6-54.7,66.6-54.7s-67.2,11.9-82.5-25c-15.3-36.9,40.6-76,40.6-76
		s-57.5,36.7-85.8,8.4c-28.3-28.3,8.4-85.8,8.4-85.8s-39.1,55.9-76,40.6c-36.9-15.3-25-82.5-25-82.5s-14.7,66.6-54.7,66.6
		c-40,0-54.7-66.6-54.7-66.6s11.9,67.2-25,82.5c-36.9,15.3-76-40.6-76-40.6s36.7,57.5,8.4,85.8c-28.3,28.3-85.8-8.4-85.8-8.4
		s55.9,39.1,40.6,76c-15.3,36.9-82.5,25-82.5,25s66.6,14.7,66.6,54.7s-66.6,54.7-66.6,54.7s67.2-11.9,82.5,25
		c15.3,36.9-40.6,76-40.6,76s57.5-36.7,85.8-8.4c28.3,28.3-8.4,85.8-8.4,85.8s39.1-55.9,76-40.6c36.9,15.3,25,82.5,25,82.5
		s14.7-66.6,54.7-66.6c40,0,54.7,66.6,54.7,66.6s-11.9-67.2,25-82.5s76,40.6,76,40.6s-36.7-57.5-8.4-85.8
		c28.3-28.3,85.8,8.4,85.8,8.4s-55.9-39.1-40.6-76c15.3-36.9,82.5-25,82.5-25S-1351.6,340-1351.6,300z M-1560,497.4
		c-109,0-197.4-88.4-197.4-197.4c0-109,88.4-197.4,197.4-197.4c109,0,197.4,88.4,197.4,197.4C-1362.6,409-1451,497.4-1560,497.4z"/>
	<circle id="Bubble" class="st2" cx="-1560" cy="300" r="175"/>
	<path id="Scintillation_1_" class="st1" d="M-731.6,300c0-40,66.6-54.7,66.6-54.7s-67.2,11.9-82.5-25c-15.3-36.9,40.6-76,40.6-76
		s-57.5,36.7-85.8,8.4c-28.3-28.3,8.4-85.8,8.4-85.8s-39.1,55.9-76,40.6c-36.9-15.3-25-82.5-25-82.5S-900,91.6-940,91.6
		S-994.7,25-994.7,25s11.9,67.2-25,82.5c-36.9,15.3-76-40.6-76-40.6s36.7,57.5,8.4,85.8c-28.3,28.3-85.8-8.4-85.8-8.4
		s55.9,39.1,40.6,76c-15.3,36.9-82.5,25-82.5,25s66.6,14.7,66.6,54.7s-66.6,54.7-66.6,54.7s67.2-11.9,82.5,25
		c15.3,36.9-40.6,76-40.6,76s57.5-36.7,85.8-8.4c28.3,28.3-8.4,85.8-8.4,85.8s39.1-55.9,76-40.6c36.9,15.3,25,82.5,25,82.5
		s14.7-66.6,54.7-66.6s54.7,66.6,54.7,66.6s-11.9-67.2,25-82.5c36.9-15.3,76,40.6,76,40.6s-36.7-57.5-8.4-85.8
		c28.3-28.3,85.8,8.4,85.8,8.4s-55.9-39.1-40.6-76s82.5-25,82.5-25S-731.6,340-731.6,300z M-940,497.4
		c-109,0-197.4-88.4-197.4-197.4c0-109,88.4-197.4,197.4-197.4S-742.6,191-742.6,300C-742.6,409-831,497.4-940,497.4z"/>
	<circle id="Bubble_2_" class="st2" cx="-940" cy="300" r="175"/>
	<path id="Scintillation_2_" class="st1" d="M-111.6,300c0-40,66.6-54.7,66.6-54.7s-67.2,11.9-82.5-25c-15.3-36.9,40.6-76,40.6-76
		s-57.5,36.7-85.8,8.4c-28.3-28.3,8.4-85.8,8.4-85.8s-39.1,55.9-76,40.6c-36.9-15.3-25-82.5-25-82.5S-280,91.6-320,91.6
		S-374.7,25-374.7,25s11.9,67.2-25,82.5c-36.9,15.3-76-40.6-76-40.6s36.7,57.5,8.4,85.8c-28.3,28.3-85.8-8.4-85.8-8.4
		s55.9,39.1,40.6,76c-15.3,36.9-82.5,25-82.5,25s66.6,14.7,66.6,54.7s-66.6,54.7-66.6,54.7s67.2-11.9,82.5,25
		c15.3,36.9-40.6,76-40.6,76s57.5-36.7,85.8-8.4c28.3,28.3-8.4,85.8-8.4,85.8s39.1-55.9,76-40.6c36.9,15.3,25,82.5,25,82.5
		s14.7-66.6,54.7-66.6s54.7,66.6,54.7,66.6s-11.9-67.2,25-82.5s76,40.6,76,40.6s-36.7-57.5-8.4-85.8c28.3-28.3,85.8,8.4,85.8,8.4
		s-55.9-39.1-40.6-76s82.5-25,82.5-25S-111.6,340-111.6,300z M-320,497.4c-109,0-197.4-88.4-197.4-197.4
		c0-109,88.4-197.4,197.4-197.4S-122.6,191-122.6,300C-122.6,409-211,497.4-320,497.4z"/>
	<circle id="Bubble_3_" class="st2" cx="-320" cy="300" r="175"/>
</g>
<g id="Text">
	<g>
		<path id="S_31_" class="st3" d="M-1799.5,293.4c-1.6-26.1-3.4-46.9-5.5-62.6c13.8,6.1,26.1,10.4,36.8,12.8
			c10.8,2.4,20.2,3.6,28.3,3.6c10.7,0,19.2-1.6,25.6-4.7c6.3-3.1,9.5-7.7,9.5-13.9c0-2.1-0.3-4.1-0.9-6c-0.6-1.9-1.8-4-3.5-6.4
			c-1.7-2.4-4.2-5-7.4-7.8l-34.7-30.1c-8.1-6.9-13.8-11.8-17-14.9c-6.5-6.2-11.6-12-15.2-17.4c-3.6-5.4-6.3-10.9-7.9-16.4
			c-1.7-5.6-2.5-11.5-2.5-17.7c0-7.5,1.3-14.8,4-21.9s6.6-13.9,11.9-20.1s12.3-11.6,21-16.1c8.7-4.5,18.1-7.6,28-9.3
			c9.9-1.7,20.2-2.5,30.8-2.5c20.8,0,43.4,2.4,67.8,7.2c0.4,8.4,0.8,16.2,1.3,23.2c0.5,7,1.7,19.4,3.5,37c-11.3-4.5-21.6-7.7-31-9.4
			c-9.3-1.8-17.4-2.7-24.1-2.7c-9.6,0-17.5,1.8-23.9,5.3c-6.3,3.5-9.5,8-9.5,13.2c0,2.4,0.5,4.8,1.5,7.2c1,2.3,2.8,5,5.5,8.2
			s6.3,6.5,10.7,10.3c4.4,3.7,11.4,9.3,20.8,16.6l13.3,10.5c3.9,3.2,8.2,7,12.7,11.6c4.5,4.5,8.5,9,11.8,13.4s5.9,8.4,7.6,12.1
			c1.8,3.7,3.1,7.4,4,11.1c0.9,3.7,1.3,7.7,1.3,12c0,11-2.6,21.5-7.9,31.5c-5.3,10-12.8,18.2-22.5,24.6s-20.4,10.9-32,13.5
			s-23.9,3.9-36.8,3.9C-1744,302-1769.1,299.1-1799.5,293.4z"/>
		<path id="B_31_" class="st3" d="M-1663,424c2.6-27.8,4.3-49.7,5.1-65.6c1.2-21.7,2.4-51.6,3.6-89.5c1.2-37.9,1.7-64.7,1.7-80.2
			c0-5.6-0.1-13.4-0.2-23.5c16.2,0.4,29.1,0.6,38.6,0.6c13.3,0,28.8-0.3,46.5-0.9s32.9-0.9,45.6-0.9c15.2,0,26.1,0.4,32.6,1.3
			c8.5,1.1,16,3.2,22.4,6.1c6.4,2.9,11.7,6.5,16,10.8c4.8,5.1,8.5,11.1,11.2,18.2c3,8.1,4.6,16.8,4.6,26c0,7.2-0.9,14.1-2.7,20.7
			c-1.8,6.6-4.3,12.4-7.5,17.5c-3.2,5.1-6.9,9.4-10.9,12.8c-4,3.4-8,6.1-11.8,8c-3.8,1.9-9,3.8-15.5,5.7c6.5,1.1,11.6,2.4,15.6,3.9
			c3.9,1.5,8.1,3.8,12.5,7c4.5,3.2,8.4,7.4,12,12.4c3.5,5.1,6.2,10.7,8,17c1.8,6.3,2.7,12.9,2.7,19.8c0,9.6-1.5,18.7-4.6,27.1
			c-3,8.5-7.3,15.7-12.8,21.8c-4.6,5.2-10.7,9.6-18.1,13.3c-7.4,3.7-15.1,6.2-22.9,7.6c-6.3,1-17.9,1.8-34.7,2.3
			c-16.8,0.5-34.6,0.8-53.3,0.8l-48.1-0.2L-1663,424z M-1585.7,372h35.2c9.3,0,16.1-0.6,20.5-1.7c5.4-1.4,9.5-3.2,12.3-5.5
			c2.8-2.3,5-5.4,6.7-9.3c1.6-3.9,2.5-8.3,2.5-13.1c0-4.2-0.7-7.8-2-11c-1.3-3.2-3.4-5.8-6-8c-2.7-2.1-6-3.7-9.9-4.6
			c-3.9-0.9-10-1.4-18.3-1.4h-38.6L-1585.7,372z M-1581.5,266h26c8.5,0,14.6-0.2,18.2-0.7c3.6-0.4,7.1-1.2,10.5-2.4
			c3.4-1.1,6.4-3,8.9-5.7c2.5-2.7,4.3-5.6,5.3-8.9c1-3.3,1.6-6.6,1.6-9.9c0-4.7-1.1-8.8-3.2-12.5c-2.1-3.7-5.6-6.4-10.3-8.2
			c-4.8-1.8-12-2.7-21.8-2.7h-32.9L-1581.5,266z"/>
		<path id="C_31_" class="st3" d="M-1291.4,492.1c-1.5,7.2-3.2,17.2-5.3,30.1c-2.1,12.9-3.5,22.8-4.2,29.9
			c-26.2,3.9-49.5,5.9-70.1,5.9c-19.8,0-38.2-2.5-55.3-7.4c-17.1-5-32.7-13.1-47-24.4c-14.2-11.3-24.4-24.6-30.5-39.9
			c-6.1-15.3-9.2-32.4-9.2-51.4c0-22.1,4.1-42,12.4-59.7c8.3-17.7,20.1-32.4,35.6-44.2c15.5-11.8,32.4-20.2,50.9-25.3
			c18.5-5.1,37.5-7.6,57.2-7.6c18.1,0,40.5,2.3,67.1,7l0.4,15.4c0.2,6.7,0.6,14.1,1.1,22.2l1.3,20.9c-14.3-3.4-25.9-5.7-34.8-7
			c-8.9-1.2-17.1-1.8-24.7-1.8c-16.5,0-31.4,3.3-44.6,9.9s-23.6,16.2-31.2,28.8c-7.6,12.6-11.4,26.5-11.4,41.8
			c0,13.9,3.2,25.9,9.5,35.9c6.4,10,15,17.7,25.8,23.1c10.8,5.4,24.2,8.2,40.1,8.2c8.7,0,18.1-0.7,28.3-2.1
			C-1319.6,498.9-1306.8,496.2-1291.4,492.1z"/>
		<path id="S_30_" class="st3" d="M-1179.5,293.4c-1.6-26.1-3.4-46.9-5.5-62.6c13.8,6.1,26.1,10.4,36.8,12.8
			c10.8,2.4,20.2,3.6,28.3,3.6c10.7,0,19.2-1.6,25.6-4.7c6.3-3.1,9.5-7.7,9.5-13.9c0-2.1-0.3-4.1-0.9-6c-0.6-1.9-1.8-4-3.5-6.4
			c-1.7-2.4-4.2-5-7.4-7.8l-34.7-30.1c-8.1-6.9-13.8-11.8-17-14.9c-6.5-6.2-11.6-12-15.2-17.4c-3.6-5.4-6.3-10.9-7.9-16.4
			c-1.7-5.6-2.5-11.5-2.5-17.7c0-7.5,1.3-14.8,4-21.9s6.6-13.9,11.9-20.1s12.3-11.6,21-16.1c8.7-4.5,18.1-7.6,28-9.3
			c9.9-1.7,20.2-2.5,30.8-2.5c20.8,0,43.4,2.4,67.8,7.2c0.4,8.4,0.8,16.2,1.3,23.2c0.5,7,1.7,19.4,3.5,37c-11.3-4.5-21.6-7.7-31-9.4
			c-9.3-1.8-17.4-2.7-24.1-2.7c-9.6,0-17.5,1.8-23.9,5.3c-6.3,3.5-9.5,8-9.5,13.2c0,2.4,0.5,4.8,1.5,7.2c1,2.3,2.8,5,5.5,8.2
			s6.3,6.5,10.7,10.3c4.4,3.7,11.4,9.3,20.8,16.6l13.3,10.5c3.9,3.2,8.2,7,12.7,11.6c4.5,4.5,8.5,9,11.8,13.4s5.9,8.4,7.6,12.1
			c1.8,3.7,3.1,7.4,4,11.1c0.9,3.7,1.3,7.7,1.3,12c0,11-2.6,21.5-7.9,31.5c-5.3,10-12.8,18.2-22.5,24.6s-20.4,10.9-32,13.5
			s-23.9,3.9-36.8,3.9C-1124,302-1149.1,299.1-1179.5,293.4z"/>
		<path id="B_30_" class="st3" d="M-1043,424c2.6-27.8,4.3-49.7,5.1-65.6c1.2-21.7,2.4-51.6,3.6-89.5c1.2-37.9,1.7-64.7,1.7-80.2
			c0-5.6-0.1-13.4-0.2-23.5c16.2,0.4,29.1,0.6,38.6,0.6c13.3,0,28.8-0.3,46.5-0.9s32.9-0.9,45.6-0.9c15.2,0,26.1,0.4,32.6,1.3
			c8.5,1.1,16,3.2,22.4,6.1c6.4,2.9,11.7,6.5,16,10.8c4.8,5.1,8.5,11.1,11.2,18.2c3,8.1,4.6,16.8,4.6,26c0,7.2-0.9,14.1-2.7,20.7
			c-1.8,6.6-4.3,12.4-7.5,17.5c-3.2,5.1-6.9,9.4-10.9,12.8s-8,6.1-11.8,8c-3.8,1.9-9,3.8-15.5,5.7c6.5,1.1,11.6,2.4,15.6,3.9
			c3.9,1.5,8.1,3.8,12.5,7c4.5,3.2,8.4,7.4,12,12.4c3.5,5.1,6.2,10.7,8,17s2.7,12.9,2.7,19.8c0,9.6-1.5,18.7-4.6,27.1
			c-3,8.5-7.3,15.7-12.8,21.8c-4.6,5.2-10.7,9.6-18.1,13.3c-7.4,3.7-15.1,6.2-22.9,7.6c-6.3,1-17.9,1.8-34.7,2.3
			c-16.8,0.5-34.6,0.8-53.3,0.8l-48.1-0.2L-1043,424z M-965.7,372h35.2c9.3,0,16.1-0.6,20.5-1.7c5.4-1.4,9.5-3.2,12.3-5.5
			c2.8-2.3,5-5.4,6.7-9.3c1.6-3.9,2.5-8.3,2.5-13.1c0-4.2-0.7-7.8-2-11c-1.3-3.2-3.4-5.8-6-8c-2.7-2.1-6-3.7-9.9-4.6
			c-3.9-0.9-10-1.4-18.3-1.4h-38.6L-965.7,372z M-961.5,266h26c8.5,0,14.6-0.2,18.2-0.7c3.6-0.4,7.1-1.2,10.5-2.4
			c3.4-1.1,6.4-3,8.9-5.7c2.5-2.7,4.3-5.6,5.3-8.9c1-3.3,1.6-6.6,1.6-9.9c0-4.7-1.1-8.8-3.2-12.5c-2.1-3.7-5.6-6.4-10.3-8.2
			c-4.8-1.8-12-2.7-21.8-2.7h-32.9L-961.5,266z"/>
		<path id="C_30_" class="st3" d="M-671.4,492.1c-1.5,7.2-3.2,17.2-5.3,30.1c-2.1,12.9-3.5,22.8-4.2,29.9
			c-26.2,3.9-49.5,5.9-70.1,5.9c-19.8,0-38.2-2.5-55.3-7.4c-17.1-5-32.7-13.1-47-24.4c-14.2-11.3-24.4-24.6-30.5-39.9
			c-6.1-15.3-9.2-32.4-9.2-51.4c0-22.1,4.1-42,12.4-59.7c8.3-17.7,20.1-32.4,35.6-44.2c15.5-11.8,32.4-20.2,50.9-25.3
			c18.5-5.1,37.5-7.6,57.2-7.6c18.1,0,40.5,2.3,67.1,7l0.4,15.4c0.2,6.7,0.6,14.1,1.1,22.2l1.3,20.9c-14.3-3.4-25.9-5.7-34.8-7
			c-8.9-1.2-17.1-1.8-24.7-1.8c-16.5,0-31.4,3.3-44.6,9.9c-13.2,6.6-23.6,16.2-31.2,28.8c-7.6,12.6-11.4,26.5-11.4,41.8
			c0,13.9,3.2,25.9,9.5,35.9c6.4,10,15,17.7,25.8,23.1c10.8,5.4,24.2,8.2,40.1,8.2c8.7,0,18.1-0.7,28.3-2.1
			C-699.6,498.9-686.8,496.2-671.4,492.1z"/>
		<path id="S_29_" class="st3" d="M-559.5,293.4c-1.6-26.1-3.4-46.9-5.5-62.6c13.8,6.1,26.1,10.4,36.8,12.8
			c10.8,2.4,20.2,3.6,28.3,3.6c10.7,0,19.2-1.6,25.6-4.7c6.3-3.1,9.5-7.7,9.5-13.9c0-2.1-0.3-4.1-0.9-6c-0.6-1.9-1.8-4-3.5-6.4
			s-4.2-5-7.4-7.8l-34.7-30.1c-8.1-6.9-13.8-11.8-17-14.9c-6.5-6.2-11.6-12-15.2-17.4c-3.6-5.4-6.3-10.9-7.9-16.4
			c-1.7-5.6-2.5-11.5-2.5-17.7c0-7.5,1.3-14.8,4-21.9c2.6-7.2,6.6-13.9,11.9-20.1c5.3-6.2,12.3-11.6,21-16.1
			c8.7-4.5,18.1-7.6,28-9.3c9.9-1.7,20.2-2.5,30.8-2.5c20.8,0,43.4,2.4,67.8,7.2c0.4,8.4,0.8,16.2,1.3,23.2c0.5,7,1.7,19.4,3.5,37
			c-11.3-4.5-21.6-7.7-31-9.4c-9.3-1.8-17.4-2.7-24.1-2.7c-9.6,0-17.5,1.8-23.9,5.3c-6.3,3.5-9.5,8-9.5,13.2c0,2.4,0.5,4.8,1.5,7.2
			c1,2.3,2.8,5,5.5,8.2s6.3,6.5,10.7,10.3c4.4,3.7,11.4,9.3,20.8,16.6l13.3,10.5c3.9,3.2,8.2,7,12.7,11.6c4.5,4.5,8.5,9,11.8,13.4
			c3.3,4.4,5.9,8.4,7.6,12.1c1.8,3.7,3.1,7.4,4,11.1c0.9,3.7,1.3,7.7,1.3,12c0,11-2.6,21.5-7.9,31.5c-5.3,10-12.8,18.2-22.5,24.6
			c-9.7,6.4-20.4,10.9-32,13.5s-23.9,3.9-36.8,3.9C-504,302-529.1,299.1-559.5,293.4z"/>
		<path id="B_29_" class="st3" d="M-423,424c2.6-27.8,4.3-49.7,5.1-65.6c1.2-21.7,2.4-51.6,3.6-89.5c1.2-37.9,1.7-64.7,1.7-80.2
			c0-5.6-0.1-13.4-0.2-23.5c16.2,0.4,29.1,0.6,38.6,0.6c13.3,0,28.8-0.3,46.5-0.9s32.9-0.9,45.6-0.9c15.2,0,26.1,0.4,32.6,1.3
			c8.5,1.1,16,3.2,22.4,6.1c6.4,2.9,11.7,6.5,16,10.8c4.8,5.1,8.5,11.1,11.2,18.2c3,8.1,4.6,16.8,4.6,26c0,7.2-0.9,14.1-2.7,20.7
			c-1.8,6.6-4.3,12.4-7.5,17.5c-3.2,5.1-6.9,9.4-10.9,12.8c-4,3.4-8,6.1-11.8,8c-3.8,1.9-9,3.8-15.5,5.7c6.5,1.1,11.6,2.4,15.6,3.9
			c3.9,1.5,8.1,3.8,12.5,7c4.5,3.2,8.4,7.4,12,12.4c3.5,5.1,6.2,10.7,8,17c1.8,6.3,2.7,12.9,2.7,19.8c0,9.6-1.5,18.7-4.6,27.1
			c-3,8.5-7.3,15.7-12.8,21.8c-4.6,5.2-10.7,9.6-18.1,13.3c-7.4,3.7-15.1,6.2-22.9,7.6c-6.3,1-17.9,1.8-34.7,2.3
			c-16.8,0.5-34.6,0.8-53.3,0.8l-48.1-0.2L-423,424z M-345.7,372h35.2c9.3,0,16.1-0.6,20.5-1.7c5.4-1.4,9.5-3.2,12.3-5.5
			c2.8-2.3,5-5.4,6.7-9.3c1.6-3.9,2.5-8.3,2.5-13.1c0-4.2-0.7-7.8-2-11c-1.3-3.2-3.4-5.8-6-8c-2.7-2.1-6-3.7-9.9-4.6
			c-3.9-0.9-10-1.4-18.3-1.4h-38.6L-345.7,372z M-341.5,266h26c8.5,0,14.6-0.2,18.2-0.7c3.6-0.4,7.1-1.2,10.5-2.4
			c3.4-1.1,6.4-3,8.9-5.7c2.5-2.7,4.3-5.6,5.3-8.9c1-3.3,1.6-6.6,1.6-9.9c0-4.7-1.1-8.8-3.2-12.5c-2.1-3.7-5.6-6.4-10.3-8.2
			c-4.8-1.8-12-2.7-21.8-2.7h-32.9L-341.5,266z"/>
		<path id="C_29_" class="st3" d="M-51.4,492.1c-1.5,7.2-3.2,17.2-5.3,30.1c-2.1,12.9-3.5,22.8-4.2,29.9
			c-26.2,3.9-49.5,5.9-70.1,5.9c-19.8,0-38.2-2.5-55.3-7.4c-17.1-5-32.7-13.1-47-24.4c-14.2-11.3-24.4-24.6-30.5-39.9
			c-6.1-15.3-9.2-32.4-9.2-51.4c0-22.1,4.1-42,12.4-59.7c8.3-17.7,20.1-32.4,35.6-44.2c15.5-11.8,32.4-20.2,50.9-25.3
			c18.5-5.1,37.5-7.6,57.2-7.6c18.1,0,40.5,2.3,67.1,7l0.4,15.4c0.2,6.7,0.6,14.1,1.1,22.2l1.3,20.9c-14.3-3.4-25.9-5.7-34.8-7
			c-8.9-1.2-17.1-1.8-24.7-1.8c-16.5,0-31.4,3.3-44.6,9.9s-23.6,16.2-31.2,28.8c-7.6,12.6-11.4,26.5-11.4,41.8
			c0,13.9,3.2,25.9,9.5,35.9c6.4,10,15,17.7,25.8,23.1c10.8,5.4,24.2,8.2,40.1,8.2c8.7,0,18.1-0.7,28.3-2.1
			C-79.6,498.9-66.8,496.2-51.4,492.1z"/>
		<rect id="Background_10_" y="2" class="st3" width="600" height="600"/>
		<path id="Scintillation_10_" class="st3" d="M508.4,302c0-40,66.6-54.7,66.6-54.7s-67.2,11.9-82.5-25c-15.3-36.9,40.6-76,40.6-76
			s-57.5,36.7-85.8,8.4c-28.3-28.3,8.4-85.8,8.4-85.8s-39.1,55.9-76,40.6c-36.9-15.3-25-82.5-25-82.5S340,93.6,300,93.6
			S245.3,27,245.3,27s11.9,67.2-25,82.5c-36.9,15.3-76-40.6-76-40.6s36.7,57.5,8.4,85.8c-28.3,28.3-85.8-8.4-85.8-8.4
			s55.9,39.1,40.6,76c-15.3,36.9-82.5,25-82.5,25S91.6,262,91.6,302S25,356.7,25,356.7s67.2-11.9,82.5,25c15.3,36.9-40.6,76-40.6,76
			s57.5-36.7,85.8-8.4c28.3,28.3-8.4,85.8-8.4,85.8s39.1-55.9,76-40.6c36.9,15.3,25,82.5,25,82.5s14.7-66.6,54.7-66.6
			s54.7,66.6,54.7,66.6s-11.9-67.2,25-82.5s76,40.6,76,40.6s-36.7-57.5-8.4-85.8c28.3-28.3,85.8,8.4,85.8,8.4s-55.9-39.1-40.6-76
			s82.5-25,82.5-25S508.4,342,508.4,302z M300,499.4c-109,0-197.4-88.4-197.4-197.4c0-109,88.4-197.4,197.4-197.4
			S497.4,193,497.4,302C497.4,411,409,499.4,300,499.4z"/>
		<circle id="Bubble_11_" class="st3" cx="300" cy="302" r="175"/>
		<path id="S_28_" class="st3" d="M60.5,295.4c-1.6-26.1-3.4-46.9-5.5-62.6c13.8,6.1,26.1,10.4,36.8,12.8
			c10.8,2.4,20.2,3.6,28.3,3.6c10.7,0,19.2-1.6,25.6-4.7c6.3-3.1,9.5-7.7,9.5-13.9c0-2.1-0.3-4.1-0.9-6c-0.6-1.9-1.8-4-3.5-6.4
			s-4.2-5-7.4-7.8l-34.7-30.1c-8.1-6.9-13.8-11.8-17-14.9c-6.5-6.2-11.6-12-15.2-17.4c-3.6-5.4-6.3-10.9-7.9-16.4
			c-1.7-5.6-2.5-11.5-2.5-17.7c0-7.5,1.3-14.8,4-21.9c2.6-7.2,6.6-13.9,11.9-20.1c5.3-6.2,12.3-11.6,21-16.1
			c8.7-4.5,18.1-7.6,28-9.3c9.9-1.7,20.2-2.5,30.8-2.5c20.8,0,43.4,2.4,67.8,7.2c0.4,8.4,0.8,16.2,1.3,23.2c0.5,7,1.7,19.4,3.5,37
			c-11.3-4.5-21.6-7.7-31-9.4c-9.3-1.8-17.4-2.7-24.1-2.7c-9.6,0-17.5,1.8-23.9,5.3c-6.3,3.5-9.5,8-9.5,13.2c0,2.4,0.5,4.8,1.5,7.2
			c1,2.3,2.8,5,5.5,8.2s6.3,6.5,10.7,10.3c4.4,3.7,11.4,9.3,20.8,16.6l13.3,10.5c3.9,3.2,8.2,7,12.7,11.6c4.5,4.5,8.5,9,11.8,13.4
			s5.9,8.4,7.6,12.1s3.1,7.4,4,11.1c0.9,3.7,1.3,7.7,1.3,12c0,11-2.6,21.5-7.9,31.5c-5.3,10-12.8,18.2-22.5,24.6s-20.4,10.9-32,13.5
			s-23.9,3.9-36.8,3.9C116,304,90.9,301.1,60.5,295.4z"/>
		<path id="B_28_" class="st3" d="M197,426c2.6-27.8,4.3-49.7,5.1-65.6c1.2-21.7,2.4-51.6,3.6-89.5c1.2-37.9,1.7-64.7,1.7-80.2
			c0-5.6-0.1-13.4-0.2-23.5c16.2,0.4,29.1,0.6,38.6,0.6c13.3,0,28.8-0.3,46.5-0.9s32.9-0.9,45.6-0.9c15.2,0,26.1,0.4,32.6,1.3
			c8.5,1.1,16,3.2,22.4,6.1c6.4,2.9,11.7,6.5,16,10.8c4.8,5.1,8.5,11.1,11.2,18.2c3,8.1,4.6,16.8,4.6,26c0,7.2-0.9,14.1-2.7,20.7
			c-1.8,6.6-4.3,12.4-7.5,17.5c-3.2,5.1-6.9,9.4-10.9,12.8s-8,6.1-11.8,8c-3.8,1.9-9,3.8-15.5,5.7c6.5,1.1,11.6,2.4,15.6,3.9
			c3.9,1.5,8.1,3.8,12.5,7c4.5,3.2,8.4,7.4,12,12.4c3.5,5.1,6.2,10.7,8,17s2.7,12.9,2.7,19.8c0,9.6-1.5,18.7-4.6,27.1
			c-3,8.5-7.3,15.7-12.8,21.8c-4.6,5.2-10.7,9.6-18.1,13.3c-7.4,3.7-15.1,6.2-22.9,7.6c-6.3,1-17.9,1.8-34.7,2.3
			c-16.8,0.5-34.6,0.8-53.3,0.8l-48.1-0.2L197,426z M274.3,374h35.2c9.3,0,16.1-0.6,20.5-1.7c5.4-1.4,9.5-3.2,12.3-5.5
			c2.8-2.3,5-5.4,6.7-9.3c1.6-3.9,2.5-8.3,2.5-13.1c0-4.2-0.7-7.8-2-11c-1.3-3.2-3.4-5.8-6-8c-2.7-2.1-6-3.7-9.9-4.6
			c-3.9-0.9-10-1.4-18.3-1.4h-38.6L274.3,374z M278.5,268h26c8.5,0,14.6-0.2,18.2-0.7c3.6-0.4,7.1-1.2,10.5-2.4
			c3.4-1.1,6.4-3,8.9-5.7c2.5-2.7,4.3-5.6,5.3-8.9c1-3.3,1.6-6.6,1.6-9.9c0-4.7-1.1-8.8-3.2-12.5c-2.1-3.7-5.6-6.4-10.3-8.2
			c-4.8-1.8-12-2.7-21.8-2.7h-32.9L278.5,268z"/>
		<path id="C_28_" class="st3" d="M568.6,494.1c-1.5,7.2-3.2,17.2-5.3,30.1c-2.1,12.9-3.5,22.8-4.2,29.9
			c-26.2,3.9-49.5,5.9-70.1,5.9c-19.8,0-38.2-2.5-55.3-7.4c-17.1-5-32.7-13.1-47-24.4c-14.2-11.3-24.4-24.6-30.5-39.9
			c-6.1-15.3-9.2-32.4-9.2-51.4c0-22.1,4.1-42,12.4-59.7c8.3-17.7,20.1-32.4,35.6-44.2c15.5-11.8,32.4-20.2,50.9-25.3
			c18.5-5.1,37.5-7.6,57.2-7.6c18.1,0,40.5,2.3,67.1,7l0.4,15.4c0.2,6.7,0.6,14.1,1.1,22.2l1.3,20.9c-14.3-3.4-25.9-5.7-34.8-7
			c-8.9-1.2-17.1-1.8-24.7-1.8c-16.5,0-31.4,3.3-44.6,9.9s-23.6,16.2-31.2,28.8c-7.6,12.6-11.4,26.5-11.4,41.8
			c0,13.9,3.2,25.9,9.5,35.9c6.4,10,15,17.7,25.8,23.1c10.8,5.4,24.2,8.2,40.1,8.2c8.7,0,18.1-0.7,28.3-2.1
			C540.4,500.9,553.2,498.2,568.6,494.1z"/>
	</g>
	<g>
		<path id="S_27_" d="M-1799.5,293.4c-1.6-26.1-3.4-46.9-5.5-62.6c13.8,6.1,26.1,10.4,36.8,12.8c10.8,2.4,20.2,3.6,28.3,3.6
			c10.7,0,19.2-1.6,25.6-4.7c6.3-3.1,9.5-7.7,9.5-13.9c0-2.1-0.3-4.1-0.9-6c-0.6-1.9-1.8-4-3.5-6.4c-1.7-2.4-4.2-5-7.4-7.8
			l-34.7-30.1c-8.1-6.9-13.8-11.8-17-14.9c-6.5-6.2-11.6-12-15.2-17.4c-3.6-5.4-6.3-10.9-7.9-16.4c-1.7-5.6-2.5-11.5-2.5-17.7
			c0-7.5,1.3-14.8,4-21.9s6.6-13.9,11.9-20.1s12.3-11.6,21-16.1c8.7-4.5,18.1-7.6,28-9.3c9.9-1.7,20.2-2.5,30.8-2.5
			c20.8,0,43.4,2.4,67.8,7.2c0.4,8.4,0.8,16.2,1.3,23.2c0.5,7,1.7,19.4,3.5,37c-11.3-4.5-21.6-7.7-31-9.4
			c-9.3-1.8-17.4-2.7-24.1-2.7c-9.6,0-17.5,1.8-23.9,5.3c-6.3,3.5-9.5,8-9.5,13.2c0,2.4,0.5,4.8,1.5,7.2c1,2.3,2.8,5,5.5,8.2
			s6.3,6.5,10.7,10.3c4.4,3.7,11.4,9.3,20.8,16.6l13.3,10.5c3.9,3.2,8.2,7,12.7,11.6c4.5,4.5,8.5,9,11.8,13.4s5.9,8.4,7.6,12.1
			c1.8,3.7,3.1,7.4,4,11.1c0.9,3.7,1.3,7.7,1.3,12c0,11-2.6,21.5-7.9,31.5c-5.3,10-12.8,18.2-22.5,24.6s-20.4,10.9-32,13.5
			s-23.9,3.9-36.8,3.9C-1744,302-1769.1,299.1-1799.5,293.4z"/>
		<path id="B_27_" class="st1" d="M-1663,424c2.6-27.8,4.3-49.7,5.1-65.6c1.2-21.7,2.4-51.6,3.6-89.5c1.2-37.9,1.7-64.7,1.7-80.2
			c0-5.6-0.1-13.4-0.2-23.5c16.2,0.4,29.1,0.6,38.6,0.6c13.3,0,28.8-0.3,46.5-0.9s32.9-0.9,45.6-0.9c15.2,0,26.1,0.4,32.6,1.3
			c8.5,1.1,16,3.2,22.4,6.1c6.4,2.9,11.7,6.5,16,10.8c4.8,5.1,8.5,11.1,11.2,18.2c3,8.1,4.6,16.8,4.6,26c0,7.2-0.9,14.1-2.7,20.7
			c-1.8,6.6-4.3,12.4-7.5,17.5c-3.2,5.1-6.9,9.4-10.9,12.8c-4,3.4-8,6.1-11.8,8c-3.8,1.9-9,3.8-15.5,5.7c6.5,1.1,11.6,2.4,15.6,3.9
			c3.9,1.5,8.1,3.8,12.5,7c4.5,3.2,8.4,7.4,12,12.4c3.5,5.1,6.2,10.7,8,17c1.8,6.3,2.7,12.9,2.7,19.8c0,9.6-1.5,18.7-4.6,27.1
			c-3,8.5-7.3,15.7-12.8,21.8c-4.6,5.2-10.7,9.6-18.1,13.3c-7.4,3.7-15.1,6.2-22.9,7.6c-6.3,1-17.9,1.8-34.7,2.3
			c-16.8,0.5-34.6,0.8-53.3,0.8l-48.1-0.2L-1663,424z M-1585.7,372h35.2c9.3,0,16.1-0.6,20.5-1.7c5.4-1.4,9.5-3.2,12.3-5.5
			c2.8-2.3,5-5.4,6.7-9.3c1.6-3.9,2.5-8.3,2.5-13.1c0-4.2-0.7-7.8-2-11c-1.3-3.2-3.4-5.8-6-8c-2.7-2.1-6-3.7-9.9-4.6
			c-3.9-0.9-10-1.4-18.3-1.4h-38.6L-1585.7,372z M-1581.5,266h26c8.5,0,14.6-0.2,18.2-0.7c3.6-0.4,7.1-1.2,10.5-2.4
			c3.4-1.1,6.4-3,8.9-5.7c2.5-2.7,4.3-5.6,5.3-8.9c1-3.3,1.6-6.6,1.6-9.9c0-4.7-1.1-8.8-3.2-12.5c-2.1-3.7-5.6-6.4-10.3-8.2
			c-4.8-1.8-12-2.7-21.8-2.7h-32.9L-1581.5,266z"/>
		<path id="C_27_" d="M-1291.4,492.1c-1.5,7.2-3.2,17.2-5.3,30.1c-2.1,12.9-3.5,22.8-4.2,29.9c-26.2,3.9-49.5,5.9-70.1,5.9
			c-19.8,0-38.2-2.5-55.3-7.4c-17.1-5-32.7-13.1-47-24.4c-14.2-11.3-24.4-24.6-30.5-39.9c-6.1-15.3-9.2-32.4-9.2-51.4
			c0-22.1,4.1-42,12.4-59.7c8.3-17.7,20.1-32.4,35.6-44.2c15.5-11.8,32.4-20.2,50.9-25.3c18.5-5.1,37.5-7.6,57.2-7.6
			c18.1,0,40.5,2.3,67.1,7l0.4,15.4c0.2,6.7,0.6,14.1,1.1,22.2l1.3,20.9c-14.3-3.4-25.9-5.7-34.8-7c-8.9-1.2-17.1-1.8-24.7-1.8
			c-16.5,0-31.4,3.3-44.6,9.9s-23.6,16.2-31.2,28.8c-7.6,12.6-11.4,26.5-11.4,41.8c0,13.9,3.2,25.9,9.5,35.9
			c6.4,10,15,17.7,25.8,23.1c10.8,5.4,24.2,8.2,40.1,8.2c8.7,0,18.1-0.7,28.3-2.1C-1319.6,498.9-1306.8,496.2-1291.4,492.1z"/>
		<path id="S_26_" class="st0" d="M-1179.5,293.4c-1.6-26.1-3.4-46.9-5.5-62.6c13.8,6.1,26.1,10.4,36.8,12.8
			c10.8,2.4,20.2,3.6,28.3,3.6c10.7,0,19.2-1.6,25.6-4.7c6.3-3.1,9.5-7.7,9.5-13.9c0-2.1-0.3-4.1-0.9-6c-0.6-1.9-1.8-4-3.5-6.4
			c-1.7-2.4-4.2-5-7.4-7.8l-34.7-30.1c-8.1-6.9-13.8-11.8-17-14.9c-6.5-6.2-11.6-12-15.2-17.4c-3.6-5.4-6.3-10.9-7.9-16.4
			c-1.7-5.6-2.5-11.5-2.5-17.7c0-7.5,1.3-14.8,4-21.9s6.6-13.9,11.9-20.1s12.3-11.6,21-16.1c8.7-4.5,18.1-7.6,28-9.3
			c9.9-1.7,20.2-2.5,30.8-2.5c20.8,0,43.4,2.4,67.8,7.2c0.4,8.4,0.8,16.2,1.3,23.2c0.5,7,1.7,19.4,3.5,37c-11.3-4.5-21.6-7.7-31-9.4
			c-9.3-1.8-17.4-2.7-24.1-2.7c-9.6,0-17.5,1.8-23.9,5.3c-6.3,3.5-9.5,8-9.5,13.2c0,2.4,0.5,4.8,1.5,7.2c1,2.3,2.8,5,5.5,8.2
			s6.3,6.5,10.7,10.3c4.4,3.7,11.4,9.3,20.8,16.6l13.3,10.5c3.9,3.2,8.2,7,12.7,11.6c4.5,4.5,8.5,9,11.8,13.4s5.9,8.4,7.6,12.1
			c1.8,3.7,3.1,7.4,4,11.1c0.9,3.7,1.3,7.7,1.3,12c0,11-2.6,21.5-7.9,31.5c-5.3,10-12.8,18.2-22.5,24.6s-20.4,10.9-32,13.5
			s-23.9,3.9-36.8,3.9C-1124,302-1149.1,299.1-1179.5,293.4z"/>
		<path id="B_26_" class="st1" d="M-1043,424c2.6-27.8,4.3-49.7,5.1-65.6c1.2-21.7,2.4-51.6,3.6-89.5c1.2-37.9,1.7-64.7,1.7-80.2
			c0-5.6-0.1-13.4-0.2-23.5c16.2,0.4,29.1,0.6,38.6,0.6c13.3,0,28.8-0.3,46.5-0.9s32.9-0.9,45.6-0.9c15.2,0,26.1,0.4,32.6,1.3
			c8.5,1.1,16,3.2,22.4,6.1c6.4,2.9,11.7,6.5,16,10.8c4.8,5.1,8.5,11.1,11.2,18.2c3,8.1,4.6,16.8,4.6,26c0,7.2-0.9,14.1-2.7,20.7
			c-1.8,6.6-4.3,12.4-7.5,17.5c-3.2,5.1-6.9,9.4-10.9,12.8s-8,6.1-11.8,8c-3.8,1.9-9,3.8-15.5,5.7c6.5,1.1,11.6,2.4,15.6,3.9
			c3.9,1.5,8.1,3.8,12.5,7c4.5,3.2,8.4,7.4,12,12.4c3.5,5.1,6.2,10.7,8,17s2.7,12.9,2.7,19.8c0,9.6-1.5,18.7-4.6,27.1
			c-3,8.5-7.3,15.7-12.8,21.8c-4.6,5.2-10.7,9.6-18.1,13.3c-7.4,3.7-15.1,6.2-22.9,7.6c-6.3,1-17.9,1.8-34.7,2.3
			c-16.8,0.5-34.6,0.8-53.3,0.8l-48.1-0.2L-1043,424z M-965.7,372h35.2c9.3,0,16.1-0.6,20.5-1.7c5.4-1.4,9.5-3.2,12.3-5.5
			c2.8-2.3,5-5.4,6.7-9.3c1.6-3.9,2.5-8.3,2.5-13.1c0-4.2-0.7-7.8-2-11c-1.3-3.2-3.4-5.8-6-8c-2.7-2.1-6-3.7-9.9-4.6
			c-3.9-0.9-10-1.4-18.3-1.4h-38.6L-965.7,372z M-961.5,266h26c8.5,0,14.6-0.2,18.2-0.7c3.6-0.4,7.1-1.2,10.5-2.4
			c3.4-1.1,6.4-3,8.9-5.7c2.5-2.7,4.3-5.6,5.3-8.9c1-3.3,1.6-6.6,1.6-9.9c0-4.7-1.1-8.8-3.2-12.5c-2.1-3.7-5.6-6.4-10.3-8.2
			c-4.8-1.8-12-2.7-21.8-2.7h-32.9L-961.5,266z"/>
		<path id="C_26_" class="st0" d="M-671.4,492.1c-1.5,7.2-3.2,17.2-5.3,30.1c-2.1,12.9-3.5,22.8-4.2,29.9
			c-26.2,3.9-49.5,5.9-70.1,5.9c-19.8,0-38.2-2.5-55.3-7.4c-17.1-5-32.7-13.1-47-24.4c-14.2-11.3-24.4-24.6-30.5-39.9
			c-6.1-15.3-9.2-32.4-9.2-51.4c0-22.1,4.1-42,12.4-59.7c8.3-17.7,20.1-32.4,35.6-44.2c15.5-11.8,32.4-20.2,50.9-25.3
			c18.5-5.1,37.5-7.6,57.2-7.6c18.1,0,40.5,2.3,67.1,7l0.4,15.4c0.2,6.7,0.6,14.1,1.1,22.2l1.3,20.9c-14.3-3.4-25.9-5.7-34.8-7
			c-8.9-1.2-17.1-1.8-24.7-1.8c-16.5,0-31.4,3.3-44.6,9.9c-13.2,6.6-23.6,16.2-31.2,28.8c-7.6,12.6-11.4,26.5-11.4,41.8
			c0,13.9,3.2,25.9,9.5,35.9c6.4,10,15,17.7,25.8,23.1c10.8,5.4,24.2,8.2,40.1,8.2c8.7,0,18.1-0.7,28.3-2.1
			C-699.6,498.9-686.8,496.2-671.4,492.1z"/>
		<path id="S_25_" d="M-559.5,293.4c-1.6-26.1-3.4-46.9-5.5-62.6c13.8,6.1,26.1,10.4,36.8,12.8c10.8,2.4,20.2,3.6,28.3,3.6
			c10.7,0,19.2-1.6,25.6-4.7c6.3-3.1,9.5-7.7,9.5-13.9c0-2.1-0.3-4.1-0.9-6c-0.6-1.9-1.8-4-3.5-6.4s-4.2-5-7.4-7.8l-34.7-30.1
			c-8.1-6.9-13.8-11.8-17-14.9c-6.5-6.2-11.6-12-15.2-17.4c-3.6-5.4-6.3-10.9-7.9-16.4c-1.7-5.6-2.5-11.5-2.5-17.7
			c0-7.5,1.3-14.8,4-21.9c2.6-7.2,6.6-13.9,11.9-20.1c5.3-6.2,12.3-11.6,21-16.1c8.7-4.5,18.1-7.6,28-9.3c9.9-1.7,20.2-2.5,30.8-2.5
			c20.8,0,43.4,2.4,67.8,7.2c0.4,8.4,0.8,16.2,1.3,23.2c0.5,7,1.7,19.4,3.5,37c-11.3-4.5-21.6-7.7-31-9.4
			c-9.3-1.8-17.4-2.7-24.1-2.7c-9.6,0-17.5,1.8-23.9,5.3c-6.3,3.5-9.5,8-9.5,13.2c0,2.4,0.5,4.8,1.5,7.2c1,2.3,2.8,5,5.5,8.2
			s6.3,6.5,10.7,10.3c4.4,3.7,11.4,9.3,20.8,16.6l13.3,10.5c3.9,3.2,8.2,7,12.7,11.6c4.5,4.5,8.5,9,11.8,13.4
			c3.3,4.4,5.9,8.4,7.6,12.1c1.8,3.7,3.1,7.4,4,11.1c0.9,3.7,1.3,7.7,1.3,12c0,11-2.6,21.5-7.9,31.5c-5.3,10-12.8,18.2-22.5,24.6
			c-9.7,6.4-20.4,10.9-32,13.5s-23.9,3.9-36.8,3.9C-504,302-529.1,299.1-559.5,293.4z"/>
		<path id="B_25_" class="st1" d="M-423,424c2.6-27.8,4.3-49.7,5.1-65.6c1.2-21.7,2.4-51.6,3.6-89.5c1.2-37.9,1.7-64.7,1.7-80.2
			c0-5.6-0.1-13.4-0.2-23.5c16.2,0.4,29.1,0.6,38.6,0.6c13.3,0,28.8-0.3,46.5-0.9s32.9-0.9,45.6-0.9c15.2,0,26.1,0.4,32.6,1.3
			c8.5,1.1,16,3.2,22.4,6.1c6.4,2.9,11.7,6.5,16,10.8c4.8,5.1,8.5,11.1,11.2,18.2c3,8.1,4.6,16.8,4.6,26c0,7.2-0.9,14.1-2.7,20.7
			c-1.8,6.6-4.3,12.4-7.5,17.5c-3.2,5.1-6.9,9.4-10.9,12.8c-4,3.4-8,6.1-11.8,8c-3.8,1.9-9,3.8-15.5,5.7c6.5,1.1,11.6,2.4,15.6,3.9
			c3.9,1.5,8.1,3.8,12.5,7c4.5,3.2,8.4,7.4,12,12.4c3.5,5.1,6.2,10.7,8,17c1.8,6.3,2.7,12.9,2.7,19.8c0,9.6-1.5,18.7-4.6,27.1
			c-3,8.5-7.3,15.7-12.8,21.8c-4.6,5.2-10.7,9.6-18.1,13.3c-7.4,3.7-15.1,6.2-22.9,7.6c-6.3,1-17.9,1.8-34.7,2.3
			c-16.8,0.5-34.6,0.8-53.3,0.8l-48.1-0.2L-423,424z M-345.7,372h35.2c9.3,0,16.1-0.6,20.5-1.7c5.4-1.4,9.5-3.2,12.3-5.5
			c2.8-2.3,5-5.4,6.7-9.3c1.6-3.9,2.5-8.3,2.5-13.1c0-4.2-0.7-7.8-2-11c-1.3-3.2-3.4-5.8-6-8c-2.7-2.1-6-3.7-9.9-4.6
			c-3.9-0.9-10-1.4-18.3-1.4h-38.6L-345.7,372z M-341.5,266h26c8.5,0,14.6-0.2,18.2-0.7c3.6-0.4,7.1-1.2,10.5-2.4
			c3.4-1.1,6.4-3,8.9-5.7c2.5-2.7,4.3-5.6,5.3-8.9c1-3.3,1.6-6.6,1.6-9.9c0-4.7-1.1-8.8-3.2-12.5c-2.1-3.7-5.6-6.4-10.3-8.2
			c-4.8-1.8-12-2.7-21.8-2.7h-32.9L-341.5,266z"/>
		<path id="C_25_" d="M-51.4,492.1c-1.5,7.2-3.2,17.2-5.3,30.1c-2.1,12.9-3.5,22.8-4.2,29.9c-26.2,3.9-49.5,5.9-70.1,5.9
			c-19.8,0-38.2-2.5-55.3-7.4c-17.1-5-32.7-13.1-47-24.4c-14.2-11.3-24.4-24.6-30.5-39.9c-6.1-15.3-9.2-32.4-9.2-51.4
			c0-22.1,4.1-42,12.4-59.7c8.3-17.7,20.1-32.4,35.6-44.2c15.5-11.8,32.4-20.2,50.9-25.3c18.5-5.1,37.5-7.6,57.2-7.6
			c18.1,0,40.5,2.3,67.1,7l0.4,15.4c0.2,6.7,0.6,14.1,1.1,22.2l1.3,20.9c-14.3-3.4-25.9-5.7-34.8-7c-8.9-1.2-17.1-1.8-24.7-1.8
			c-16.5,0-31.4,3.3-44.6,9.9s-23.6,16.2-31.2,28.8c-7.6,12.6-11.4,26.5-11.4,41.8c0,13.9,3.2,25.9,9.5,35.9
			c6.4,10,15,17.7,25.8,23.1c10.8,5.4,24.2,8.2,40.1,8.2c8.7,0,18.1-0.7,28.3-2.1C-79.6,498.9-66.8,496.2-51.4,492.1z"/>
		<rect id="Background_9_" y="2" class="st0" width="600" height="600"/>
		<path id="Scintillation_9_" class="st4" d="M508.4,302c0-40,66.6-54.7,66.6-54.7s-67.2,11.9-82.5-25c-15.3-36.9,40.6-76,40.6-76
			s-57.5,36.7-85.8,8.4c-28.3-28.3,8.4-85.8,8.4-85.8s-39.1,55.9-76,40.6c-36.9-15.3-25-82.5-25-82.5S340,93.6,300,93.6
			S245.3,27,245.3,27s11.9,67.2-25,82.5c-36.9,15.3-76-40.6-76-40.6s36.7,57.5,8.4,85.8c-28.3,28.3-85.8-8.4-85.8-8.4
			s55.9,39.1,40.6,76c-15.3,36.9-82.5,25-82.5,25S91.6,262,91.6,302S25,356.7,25,356.7s67.2-11.9,82.5,25c15.3,36.9-40.6,76-40.6,76
			s57.5-36.7,85.8-8.4c28.3,28.3-8.4,85.8-8.4,85.8s39.1-55.9,76-40.6c36.9,15.3,25,82.5,25,82.5s14.7-66.6,54.7-66.6
			s54.7,66.6,54.7,66.6s-11.9-67.2,25-82.5s76,40.6,76,40.6s-36.7-57.5-8.4-85.8c28.3-28.3,85.8,8.4,85.8,8.4s-55.9-39.1-40.6-76
			s82.5-25,82.5-25S508.4,342,508.4,302z M300,499.4c-109,0-197.4-88.4-197.4-197.4c0-109,88.4-197.4,197.4-197.4
			S497.4,193,497.4,302C497.4,411,409,499.4,300,499.4z"/>
		<circle id="Bubble_10_" class="st5" cx="300" cy="302" r="175"/>
		<path id="S_24_" d="M60.5,295.4c-1.6-26.1-3.4-46.9-5.5-62.6c13.8,6.1,26.1,10.4,36.8,12.8c10.8,2.4,20.2,3.6,28.3,3.6
			c10.7,0,19.2-1.6,25.6-4.7c6.3-3.1,9.5-7.7,9.5-13.9c0-2.1-0.3-4.1-0.9-6c-0.6-1.9-1.8-4-3.5-6.4s-4.2-5-7.4-7.8l-34.7-30.1
			c-8.1-6.9-13.8-11.8-17-14.9c-6.5-6.2-11.6-12-15.2-17.4c-3.6-5.4-6.3-10.9-7.9-16.4c-1.7-5.6-2.5-11.5-2.5-17.7
			c0-7.5,1.3-14.8,4-21.9c2.6-7.2,6.6-13.9,11.9-20.1c5.3-6.2,12.3-11.6,21-16.1c8.7-4.5,18.1-7.6,28-9.3c9.9-1.7,20.2-2.5,30.8-2.5
			c20.8,0,43.4,2.4,67.8,7.2c0.4,8.4,0.8,16.2,1.3,23.2c0.5,7,1.7,19.4,3.5,37c-11.3-4.5-21.6-7.7-31-9.4
			c-9.3-1.8-17.4-2.7-24.1-2.7c-9.6,0-17.5,1.8-23.9,5.3c-6.3,3.5-9.5,8-9.5,13.2c0,2.4,0.5,4.8,1.5,7.2c1,2.3,2.8,5,5.5,8.2
			s6.3,6.5,10.7,10.3c4.4,3.7,11.4,9.3,20.8,16.6l13.3,10.5c3.9,3.2,8.2,7,12.7,11.6c4.5,4.5,8.5,9,11.8,13.4s5.9,8.4,7.6,12.1
			s3.1,7.4,4,11.1c0.9,3.7,1.3,7.7,1.3,12c0,11-2.6,21.5-7.9,31.5c-5.3,10-12.8,18.2-22.5,24.6s-20.4,10.9-32,13.5
			s-23.9,3.9-36.8,3.9C116,304,90.9,301.1,60.5,295.4z"/>
		<path id="B_24_" class="st4" d="M197,426c2.6-27.8,4.3-49.7,5.1-65.6c1.2-21.7,2.4-51.6,3.6-89.5c1.2-37.9,1.7-64.7,1.7-80.2
			c0-5.6-0.1-13.4-0.2-23.5c16.2,0.4,29.1,0.6,38.6,0.6c13.3,0,28.8-0.3,46.5-0.9s32.9-0.9,45.6-0.9c15.2,0,26.1,0.4,32.6,1.3
			c8.5,1.1,16,3.2,22.4,6.1c6.4,2.9,11.7,6.5,16,10.8c4.8,5.1,8.5,11.1,11.2,18.2c3,8.1,4.6,16.8,4.6,26c0,7.2-0.9,14.1-2.7,20.7
			c-1.8,6.6-4.3,12.4-7.5,17.5c-3.2,5.1-6.9,9.4-10.9,12.8s-8,6.1-11.8,8c-3.8,1.9-9,3.8-15.5,5.7c6.5,1.1,11.6,2.4,15.6,3.9
			c3.9,1.5,8.1,3.8,12.5,7c4.5,3.2,8.4,7.4,12,12.4c3.5,5.1,6.2,10.7,8,17s2.7,12.9,2.7,19.8c0,9.6-1.5,18.7-4.6,27.1
			c-3,8.5-7.3,15.7-12.8,21.8c-4.6,5.2-10.7,9.6-18.1,13.3c-7.4,3.7-15.1,6.2-22.9,7.6c-6.3,1-17.9,1.8-34.7,2.3
			c-16.8,0.5-34.6,0.8-53.3,0.8l-48.1-0.2L197,426z M274.3,374h35.2c9.3,0,16.1-0.6,20.5-1.7c5.4-1.4,9.5-3.2,12.3-5.5
			c2.8-2.3,5-5.4,6.7-9.3c1.6-3.9,2.5-8.3,2.5-13.1c0-4.2-0.7-7.8-2-11c-1.3-3.2-3.4-5.8-6-8c-2.7-2.1-6-3.7-9.9-4.6
			c-3.9-0.9-10-1.4-18.3-1.4h-38.6L274.3,374z M278.5,268h26c8.5,0,14.6-0.2,18.2-0.7c3.6-0.4,7.1-1.2,10.5-2.4
			c3.4-1.1,6.4-3,8.9-5.7c2.5-2.7,4.3-5.6,5.3-8.9c1-3.3,1.6-6.6,1.6-9.9c0-4.7-1.1-8.8-3.2-12.5c-2.1-3.7-5.6-6.4-10.3-8.2
			c-4.8-1.8-12-2.7-21.8-2.7h-32.9L278.5,268z"/>
		<path id="C_24_" d="M568.6,494.1c-1.5,7.2-3.2,17.2-5.3,30.1c-2.1,12.9-3.5,22.8-4.2,29.9c-26.2,3.9-49.5,5.9-70.1,5.9
			c-19.8,0-38.2-2.5-55.3-7.4c-17.1-5-32.7-13.1-47-24.4c-14.2-11.3-24.4-24.6-30.5-39.9c-6.1-15.3-9.2-32.4-9.2-51.4
			c0-22.1,4.1-42,12.4-59.7c8.3-17.7,20.1-32.4,35.6-44.2c15.5-11.8,32.4-20.2,50.9-25.3c18.5-5.1,37.5-7.6,57.2-7.6
			c18.1,0,40.5,2.3,67.1,7l0.4,15.4c0.2,6.7,0.6,14.1,1.1,22.2l1.3,20.9c-14.3-3.4-25.9-5.7-34.8-7c-8.9-1.2-17.1-1.8-24.7-1.8
			c-16.5,0-31.4,3.3-44.6,9.9s-23.6,16.2-31.2,28.8c-7.6,12.6-11.4,26.5-11.4,41.8c0,13.9,3.2,25.9,9.5,35.9
			c6.4,10,15,17.7,25.8,23.1c10.8,5.4,24.2,8.2,40.1,8.2c8.7,0,18.1-0.7,28.3-2.1C540.4,500.9,553.2,498.2,568.6,494.1z"/>
	</g>
</g>
</svg>
